<?xml version="1.0" encoding="UTF-8" standalone="no"?>
<!-- Created with Inkscape (http://www.inkscape.org/) -->
<svg
   xmlns:dc="http://purl.org/dc/elements/1.1/"
   xmlns:cc="http://creativecommons.org/ns#"
   xmlns:rdf="http://www.w3.org/1999/02/22-rdf-syntax-ns#"
   xmlns:svg="http://www.w3.org/2000/svg"
   xmlns="http://www.w3.org/2000/svg"
   xmlns:sodipodi="http://sodipodi.sourceforge.net/DTD/sodipodi-0.dtd"
   xmlns:inkscape="http://www.inkscape.org/namespaces/inkscape"
   width="1080"
   height="1080"
   id="svg2"
   sodipodi:version="0.32"
   inkscape:version="0.46"
   sodipodi:docname="postage stamp border.svg"
   inkscape:output_extension="org.inkscape.output.svg.inkscape"
   version="1.0">
  <sodipodi:namedview
     id="base"
     pagecolor="#ffffff"
     bordercolor="#666666"
     borderopacity="1.0"
     gridtolerance="10000"
     guidetolerance="10"
     objecttolerance="10"
     inkscape:pageopacity="0.0"
     inkscape:pageshadow="2"
     inkscape:zoom="0.38285024"
     inkscape:cx="540"
     inkscape:cy="617.08202"
     inkscape:document-units="in"
     inkscape:current-layer="layer1"
     showgrid="false"
     units="in"
     inkscape:snap-guide="true" />
  <defs
     id="defs4">
    <inkscape:perspective
       id="perspective10"
       inkscape:persp3d-origin="372.04724 : 350.78739 : 1"
       inkscape:vp_z="744.09448 : 526.18109 : 1"
       inkscape:vp_y="0 : 1000 : 0"
       inkscape:vp_x="0 : 526.18109 : 1"
       sodipodi:type="inkscape:persp3d" />
  </defs>
  <metadata
     id="metadata7">
    <rdf:RDF>
      <cc:Work
         rdf:about="">
        <dc:format>image/svg+xml</dc:format>
        <dc:type
           rdf:resource="http://purl.org/dc/dcmitype/StillImage" />
        <dc:creator>
          <cc:Agent>
            <dc:title>HeatherM</dc:title>
          </cc:Agent>
        </dc:creator>
      </cc:Work>
    </rdf:RDF>
  </metadata>
  <g
     id="layer1"
     inkscape:groupmode="layer"
     inkscape:label="Layer 1">
    <path
       style="opacity:1;fill:#eec73e;fill-opacity:0.76862745;fill-rule:nonzero;stroke:none;stroke-width:4.5;stroke-linecap:round;stroke-linejoin:round;stroke-miterlimit:4;stroke-dasharray:none;stroke-dashoffset:0;stroke-opacity:1"
       d="M 45,495 C 45.000002,507.42 34.919999,517.5 22.5,517.5 L 22.5,585 L 1057.5,585 L 1057.5,517.5 C 1045.08,517.5 1035,507.42 1035,495 L 1011,495 C 1011,507.42 1000.92,517.5 988.5,517.5 C 976.08001,517.5 966,507.42 966,495 L 942,495 C 942.00001,507.42 931.92,517.5 919.5,517.5 C 907.08001,517.5 897,507.42 897,495 L 873,495 C 873.00001,507.42 862.92,517.5 850.5,517.5 C 838.08001,517.5 828,507.42 828,495 L 804,495 C 804.00001,507.42 793.92,517.5 781.5,517.5 C 769.08001,517.5 759,507.42 759,495 L 735,495 C 735.00001,507.42 724.92,517.5 712.5,517.5 C 700.08001,517.5 690,507.42 690,495 L 666,495 C 666.00001,507.42 655.92,517.5 643.5,517.5 C 631.08001,517.5 621,507.42 621,495 L 597,495 C 597.00001,507.42 586.92,517.5 574.5,517.5 C 562.08001,517.5 552,507.42 552,495 L 528,495 C 528.00001,507.42 517.92,517.5 505.5,517.5 C 493.08001,517.5 483,507.42 483,495 L 459,495 C 459.00001,507.42 448.92,517.5 436.5,517.5 C 424.08001,517.5 414,507.42 414,495 L 390,495 C 390.00001,507.42 379.92,517.5 367.5,517.5 C 355.08001,517.5 345,507.42 345,495 L 321,495 C 321,507.42 310.92,517.5 298.5,517.5 C 286.08,517.5 276,507.42 276,495 L 252,495 C 251.99999,507.42 241.92,517.5 229.5,517.5 C 217.07999,517.5 207,507.42 207,495 L 183,495 C 183,507.42 172.92,517.5 160.5,517.5 C 148.08,517.5 138,507.42 138,495 L 114,495 C 114,507.42 103.92,517.5 91.5,517.5 C 79.080001,517.5 69,507.42 69,495 L 45,495 z"
       id="rect2824"
       sodipodi:nodetypes="cccccccsccsccsccsccsccsccsccsccsccsccsccsccsccscc"
       inkscape:export-filename="C:\Documents and Settings\Heather\My Documents\Cricut\postage stamp.png"
       inkscape:export-xdpi="43.48"
       inkscape:export-ydpi="43.48" />
  </g>
</svg>
