<?xml version="1.0" encoding="UTF-8" standalone="no"?>
<!-- Created with Inkscape (http://www.inkscape.org/) -->
<svg
   xmlns:dc="http://purl.org/dc/elements/1.1/"
   xmlns:cc="http://creativecommons.org/ns#"
   xmlns:rdf="http://www.w3.org/1999/02/22-rdf-syntax-ns#"
   xmlns:svg="http://www.w3.org/2000/svg"
   xmlns="http://www.w3.org/2000/svg"
   xmlns:sodipodi="http://sodipodi.sourceforge.net/DTD/sodipodi-0.dtd"
   xmlns:inkscape="http://www.inkscape.org/namespaces/inkscape"
   width="1080"
   height="1080"
   id="svg2"
   sodipodi:version="0.32"
   inkscape:version="0.46"
   sodipodi:docname="postage stamp mat.svg"
   inkscape:output_extension="org.inkscape.output.svg.inkscape"
   version="1.0">
  <sodipodi:namedview
     id="base"
     pagecolor="#ffffff"
     bordercolor="#666666"
     borderopacity="1.0"
     gridtolerance="10000"
     guidetolerance="10"
     objecttolerance="10"
     inkscape:pageopacity="0.0"
     inkscape:pageshadow="2"
     inkscape:zoom="0.32656719"
     inkscape:cx="747"
     inkscape:cy="540"
     inkscape:document-units="in"
     inkscape:current-layer="layer1"
     showgrid="false"
     units="in"
     inkscape:snap-guide="true" />
  <defs
     id="defs4">
    <inkscape:perspective
       id="perspective10"
       inkscape:persp3d-origin="372.04724 : 350.78739 : 1"
       inkscape:vp_z="744.09448 : 526.18109 : 1"
       inkscape:vp_y="0 : 1000 : 0"
       inkscape:vp_x="0 : 526.18109 : 1"
       sodipodi:type="inkscape:persp3d" />
  </defs>
  <metadata
     id="metadata7">
    <rdf:RDF>
      <cc:Work
         rdf:about="">
        <dc:format>image/svg+xml</dc:format>
        <dc:type
           rdf:resource="http://purl.org/dc/dcmitype/StillImage" />
        <dc:creator>
          <cc:Agent>
            <dc:title>HeatherM</dc:title>
          </cc:Agent>
        </dc:creator>
      </cc:Work>
    </rdf:RDF>
  </metadata>
  <g
     id="layer1"
     inkscape:groupmode="layer"
     inkscape:label="Layer 1">
    <path
       style="opacity:1;fill:#eec73e;fill-opacity:0.76862745;fill-rule:nonzero;stroke:none;stroke-width:4.5;stroke-linecap:round;stroke-linejoin:round;stroke-miterlimit:4;stroke-dasharray:none;stroke-dashoffset:0;stroke-opacity:1"
       d="M 65.966336,47.125273 C 65.966337,52.525273 61.583727,56.907883 56.183727,56.907883 L 56.183727,67.342663 C 61.583727,67.342663 65.966336,71.725273 65.966336,77.125273 C 65.966336,82.525273 61.583727,86.907883 56.183727,86.907883 L 56.183727,97.342663 C 61.583727,97.342663 65.966336,101.72527 65.966336,107.12527 C 65.966336,112.52527 61.583727,116.90788 56.183727,116.90788 L 56.183727,127.34266 C 61.583727,127.34266 65.966336,131.72527 65.966336,137.12527 C 65.966336,142.52527 61.583727,146.90788 56.183727,146.90788 L 56.183727,157.34266 C 61.583727,157.34267 65.966336,161.72527 65.966336,167.12527 C 65.966336,172.52527 61.583727,176.90788 56.183727,176.90788 L 56.183727,187.34266 C 61.583727,187.34267 65.966336,191.72527 65.966336,197.12527 C 65.966336,202.52527 61.583727,206.90788 56.183727,206.90788 L 56.183727,217.34266 C 61.583727,217.34267 65.966336,221.72527 65.966336,227.12527 C 65.966336,232.52527 61.583727,236.90788 56.183727,236.90788 L 56.183727,247.34266 C 61.583727,247.34267 65.966336,251.72527 65.966336,257.12527 C 65.966336,262.52527 61.583727,266.90788 56.183727,266.90788 L 56.183727,277.34266 C 61.583727,277.34267 65.966336,281.72527 65.966336,287.12527 C 65.966336,292.52527 61.583727,296.90788 56.183727,296.90788 L 56.183727,307.34266 C 61.583727,307.34267 65.966336,311.72527 65.966336,317.12527 C 65.966336,322.52527 61.583727,326.90788 56.183727,326.90788 L 56.183727,337.34266 C 61.583727,337.34267 65.966336,341.72527 65.966336,347.12527 C 65.966336,352.52527 61.583727,356.90788 56.183727,356.90788 L 56.183727,367.34266 C 61.583727,367.34267 65.966336,371.72527 65.966336,377.12527 C 65.966336,382.52527 61.583727,386.90788 56.183727,386.90788 L 56.183727,397.34266 C 61.583727,397.34267 65.966336,401.72527 65.966336,407.12527 C 65.966336,412.52527 61.583727,416.90788 56.183727,416.90788 L 56.183727,427.34266 C 61.583727,427.34267 65.966336,431.72527 65.966336,437.12527 C 65.966336,442.52527 61.583727,446.90787 56.183727,446.90787 L 56.183727,457.34267 C 61.583727,457.34267 65.966336,461.72527 65.966336,467.12527 C 65.966336,472.52527 61.583727,476.90787 56.183727,476.90787 L 56.183727,487.34267 C 61.583727,487.34267 65.966336,491.72527 65.966336,497.12527 L 76.401118,497.12527 C 76.401118,491.72527 80.783727,487.34267 86.183727,487.34267 C 91.583723,487.34267 95.966336,491.72527 95.966336,497.12527 L 106.40112,497.12527 C 106.40112,491.72527 110.78373,487.34267 116.18373,487.34267 C 121.58373,487.34267 125.96634,491.72527 125.96634,497.12527 L 136.40112,497.12527 C 136.40112,491.72527 140.78373,487.34267 146.18373,487.34267 C 151.58373,487.34267 155.96634,491.72527 155.96634,497.12527 L 166.40112,497.12527 C 166.40113,491.72527 170.78373,487.34267 176.18373,487.34267 C 181.58373,487.34267 185.96634,491.72527 185.96634,497.12527 L 196.40112,497.12527 C 196.40113,491.72527 200.78373,487.34267 206.18373,487.34267 C 211.58373,487.34267 215.96634,491.72527 215.96634,497.12527 L 226.40112,497.12527 C 226.40113,491.72527 230.78373,487.34267 236.18373,487.34267 C 241.58373,487.34267 245.96634,491.72527 245.96634,497.12527 L 256.40112,497.12527 C 256.40113,491.72527 260.78373,487.34267 266.18373,487.34267 C 271.58373,487.34267 275.96634,491.72527 275.96634,497.12527 L 286.40112,497.12527 C 286.40112,491.72527 290.78373,487.34267 296.18373,487.34267 C 301.58373,487.34267 305.96634,491.72527 305.96634,497.12527 L 316.40112,497.12527 C 316.40112,491.72527 320.78373,487.34267 326.18373,487.34267 C 331.58373,487.34267 335.96634,491.72527 335.96634,497.12527 L 346.40112,497.12527 C 346.40112,491.72527 350.78373,487.34267 356.18373,487.34267 C 361.58373,487.34267 365.96634,491.72527 365.96634,497.12527 L 376.40112,497.12527 C 376.40112,491.72527 380.78373,487.34267 386.18373,487.34267 C 391.58373,487.34267 395.96634,491.72527 395.96634,497.12527 L 406.40112,497.12527 C 406.40112,491.72527 410.78373,487.34267 416.18373,487.34267 C 421.58373,487.34267 425.96634,491.72527 425.96634,497.12527 L 436.40112,497.12527 C 436.40112,491.72527 440.78373,487.34267 446.18373,487.34267 C 451.58373,487.34267 455.96634,491.72527 455.96634,497.12527 L 466.40112,497.12527 C 466.40112,491.72527 470.78373,487.34267 476.18373,487.34267 C 481.58377,487.34267 485.96634,491.72527 485.96634,497.12527 L 496.40112,497.12527 C 496.40112,491.72527 500.78373,487.34267 506.18373,487.34267 C 511.58373,487.34267 515.96634,491.72527 515.96634,497.12527 L 526.40112,497.12527 C 526.40112,491.72527 530.78373,487.34267 536.18373,487.34267 C 541.58373,487.34267 545.96634,491.72527 545.96634,497.12527 L 556.40112,497.12527 C 556.40112,491.72527 560.78373,487.34267 566.18373,487.34267 C 571.58373,487.34267 575.96634,491.72527 575.96634,497.12527 L 586.40112,497.12527 C 586.40112,491.72527 590.78373,487.34267 596.18373,487.34267 C 601.58373,487.34267 605.96634,491.72527 605.96634,497.12527 L 616.40112,497.12527 C 616.40112,491.72527 620.78373,487.34267 626.18373,487.34267 C 631.58373,487.34267 635.96634,491.72527 635.96634,497.12527 L 646.40112,497.12527 C 646.40112,491.72527 650.78373,487.34267 656.18373,487.34267 C 661.58377,487.34267 665.96634,491.72527 665.96634,497.12527 L 676.40112,497.12527 C 676.40112,491.72527 680.78373,487.34267 686.18373,487.34267 L 686.18373,476.90787 C 680.78373,476.90787 676.40112,472.52527 676.40112,467.12527 C 676.40112,461.72527 680.78373,457.34267 686.18373,457.34267 L 686.18373,446.90787 C 680.78373,446.90787 676.40112,442.52527 676.40112,437.12527 C 676.40112,431.72527 680.78373,427.34266 686.18373,427.34266 L 686.18373,416.90788 C 680.78373,416.90788 676.40112,412.52527 676.40112,407.12527 C 676.40112,401.72527 680.78373,397.34266 686.18373,397.34266 L 686.18373,386.90788 C 680.78373,386.90788 676.40112,382.52527 676.40112,377.12527 C 676.40112,371.72527 680.78373,367.34266 686.18373,367.34266 L 686.18373,356.90788 C 680.78373,356.90788 676.40112,352.52527 676.40112,347.12527 C 676.40112,341.72527 680.78373,337.34266 686.18373,337.34266 L 686.18373,326.90788 C 680.78373,326.90788 676.40112,322.52527 676.40112,317.12527 C 676.40112,311.72527 680.78373,307.34266 686.18373,307.34266 L 686.18373,296.90788 C 680.78373,296.90788 676.40112,292.52527 676.40112,287.12527 C 676.40112,281.72527 680.78373,277.34266 686.18373,277.34266 L 686.18373,266.90788 C 680.78373,266.90788 676.40112,262.52527 676.40112,257.12527 C 676.40112,251.72527 680.78373,247.34266 686.18373,247.34266 L 686.18373,236.90788 C 680.78373,236.90788 676.40112,232.52527 676.40112,227.12527 C 676.40112,221.72527 680.78373,217.34266 686.18373,217.34266 L 686.18373,206.90788 C 680.78373,206.90788 676.40112,202.52527 676.40112,197.12527 C 676.40112,191.72527 680.78373,187.34266 686.18373,187.34266 L 686.18373,176.90788 C 680.78373,176.90788 676.40112,172.52527 676.40112,167.12527 C 676.40112,161.72527 680.78373,157.34266 686.18373,157.34266 L 686.18373,146.90788 C 680.78373,146.90788 676.40112,142.52527 676.40112,137.12527 C 676.40112,131.72527 680.78373,127.34266 686.18373,127.34266 L 686.18373,116.90788 C 680.78373,116.90788 676.40112,112.52527 676.40112,107.12527 C 676.40112,101.72527 680.78373,97.342663 686.18373,97.342663 L 686.18373,86.907883 C 680.78373,86.907883 676.40112,82.525273 676.40112,77.125273 C 676.40112,71.725273 680.78373,67.342663 686.18373,67.342663 L 686.18373,56.907883 C 680.78373,56.907883 676.40112,52.525273 676.40112,47.125273 L 665.96634,47.125273 C 665.96634,52.525273 661.58373,56.907883 656.18373,56.907883 C 650.78373,56.907883 646.40112,52.525273 646.40112,47.125273 L 635.96634,47.125273 C 635.96634,52.525273 631.58373,56.907883 626.18373,56.907883 C 620.78373,56.907883 616.40112,52.525273 616.40112,47.125273 L 605.96634,47.125273 C 605.96634,52.525273 601.58373,56.907883 596.18373,56.907883 C 590.78373,56.907883 586.40112,52.525273 586.40112,47.125273 L 575.96634,47.125273 C 575.96634,52.525273 571.58373,56.907883 566.18373,56.907883 C 560.78373,56.907883 556.40112,52.525273 556.40112,47.125273 L 545.96634,47.125273 C 545.96634,52.525273 541.58373,56.907883 536.18373,56.907883 C 530.78373,56.907883 526.40112,52.525273 526.40112,47.125273 L 515.96634,47.125273 C 515.96634,52.525273 511.58373,56.907883 506.18373,56.907883 C 500.78373,56.907883 496.40112,52.525273 496.40112,47.125273 L 485.96634,47.125273 C 485.96634,52.525273 481.58373,56.907883 476.18373,56.907883 C 470.78373,56.907883 466.40112,52.525273 466.40112,47.125273 L 455.96634,47.125273 C 455.96634,52.525273 451.58373,56.907883 446.18373,56.907883 C 440.78373,56.907883 436.40112,52.525273 436.40112,47.125273 L 425.96634,47.125273 C 425.96634,52.525273 421.58373,56.907883 416.18373,56.907883 C 410.78373,56.907883 406.40112,52.525273 406.40112,47.125273 L 395.96634,47.125273 C 395.96634,52.525273 391.58373,56.907883 386.18373,56.907883 C 380.78373,56.907883 376.40112,52.525273 376.40112,47.125273 L 365.96634,47.125273 C 365.96634,52.525273 361.58373,56.907883 356.18373,56.907883 C 350.78373,56.907883 346.40112,52.525273 346.40112,47.125273 L 335.96634,47.125273 C 335.96634,52.525273 331.58373,56.907883 326.18373,56.907883 C 320.78373,56.907883 316.40112,52.525273 316.40112,47.125273 L 305.96634,47.125273 C 305.96634,52.525273 301.58373,56.907883 296.18373,56.907883 C 290.78373,56.907883 286.40112,52.525273 286.40112,47.125273 L 275.96634,47.125273 C 275.96634,52.525273 271.58373,56.907883 266.18373,56.907883 C 260.78373,56.907883 256.40112,52.525273 256.40112,47.125273 L 245.96634,47.125273 C 245.96634,52.525273 241.58373,56.907883 236.18373,56.907883 C 230.78373,56.907883 226.40112,52.525273 226.40112,47.125273 L 215.96634,47.125273 C 215.96634,52.525273 211.58373,56.907883 206.18373,56.907883 C 200.78373,56.907883 196.40112,52.525273 196.40112,47.125273 L 185.96634,47.125273 C 185.96634,52.525273 181.58373,56.907883 176.18373,56.907883 C 170.78373,56.907883 166.40112,52.525273 166.40112,47.125273 L 155.96634,47.125273 C 155.96633,52.525273 151.58373,56.907883 146.18373,56.907883 C 140.78373,56.907883 136.40112,52.525273 136.40112,47.125273 L 125.96634,47.125273 C 125.96634,52.525273 121.58373,56.907883 116.18373,56.907883 C 110.78373,56.907883 106.40112,52.525273 106.40112,47.125273 L 95.966336,47.125273 C 95.966336,52.525273 91.583727,56.907883 86.183727,56.907883 C 80.783727,56.907883 76.401118,52.525273 76.401118,47.125273 L 65.966336,47.125273 z"
       id="rect2824"
       sodipodi:nodetypes="cccsccsccsccsccsccsccsccsccsccsccsccsccsccsccccsccsccsccsccsccsccsccsccsccsccsccsccsccsccsccsccsccsccsccsccccsccsccsccsccsccsccsccsccsccsccsccsccsccsccccsccsccsccsccsccsccsccsccsccsccsccsccsccsccsccsccsccsccsccscc"
       inkscape:export-filename="C:\Documents and Settings\Heather\My Documents\Cricut\postage stamp edge\postage stamp.png"
       inkscape:export-xdpi="43.48"
       inkscape:export-ydpi="43.48" />
  </g>
</svg>
